<?xml version="1.0" encoding="UTF-8"?>
<svg id="Layer_1" data-name="Layer 1" xmlns="http://www.w3.org/2000/svg" viewBox="0 0 360 360">
  <g id="YCuC7V.tif">
    <g>
      <path d="M151.13,50.39c1.23,.26,2.48,.45,3.7,.78,5.69,1.55,10.28,5.14,14.23,9.87,5.98,7.17,9.8,15.73,12.38,25.04,1.32,4.74,2.3,9.57,2.07,14.57-.66,14.35-5.69,26.12-16.63,33.98-6.88,4.94-14.47,6.14-22.35,3.35-4.72-1.67-8.33-5.24-11.56-9.35-6.14-7.82-9.57-16.95-10.5-27.33-.92-10.28-.26-20.32,3.28-29.97,2.09-5.7,4.98-10.79,9.2-14.81,3.57-3.39,7.66-5.44,12.33-5.94,.21-.02,.41-.13,.62-.2,1.07,0,2.15,0,3.22,0Z"/>
      <path d="M316.53,155.81c-.49,1.92-.89,3.86-1.47,5.75-2.15,6.95-4.9,13.64-10.07,18.93-8.26,8.46-18.37,11.9-29.95,9.64-12.16-2.38-19.51-10.19-22.73-22.05-1.96-7.2-1.16-14.12,2.5-20.57,5.73-10.09,13.66-18.01,24.1-23.19,4.71-2.34,9.73-3.64,15.05-3.38,8.88,.42,15.49,4.62,19.81,12.33,2.67,4.78,3.46,10.03,3.37,15.45,0,.42,.04,.84,.06,1.25l-.66,5.83Z"/>
      <path d="M106.15,241.6c.14-11.21,2.43-22.16,6.92-32.57,7.38-17.11,17.23-32.34,29.94-45.37,8.69-8.9,18.39-16.16,29.64-20.88,4.5-1.89,9.12-3.17,13.98-3.3,8.08-.22,15.48,2.24,22.43,6.49,6.11,3.74,11.45,8.52,15.99,14.25,8.25,10.41,16.17,21.12,22.96,32.72,5.07,8.67,9.47,17.69,12.27,27.52,1.81,6.33,2.91,12.79,2.69,19.44-.49,14.67-6.21,26.38-17.5,34.74-4.51,3.34-9.73,4.94-15.05,6.06-8.55,1.79-16.73,.04-24.68-3.32-2.8-1.18-5.63-4.26-8.05-6.13-2.05-1.57-4.08-3.17-6.16-4.7-2.19-1.62-4.84-3.92-7.63-4.39-3.5-.58-6.32,1.64-8.54,4.08-3.49,3.83-6.43,7.07-11.07,9.55-3.54,1.89-7.18,3.61-10.95,4.98-5.54,2.01-11.29,2.69-17.15,2.06-14.06-1.51-24.2-10.57-28.09-25.16-1.29-4.82-1.96-10.29-1.96-16.08Z"/>
      <path d="M263.02,91.41c-.15,8.36-.62,14.77-2.95,20.86-3.47,9.09-9.09,16.3-17.84,20.38-8.09,3.77-16.49,4.42-24.99,1.37-5.4-1.94-9.16-5.91-12.2-10.71-4.4-6.93-6.07-14.57-5.15-22.73,1.5-13.26,6.55-24.95,15.33-34.81,3.93-4.41,8.59-7.84,14.19-9.65,9.91-3.2,19.9,.37,26.1,9.26,3.45,4.94,5.45,10.53,6.43,16.48,.62,3.78,.87,7.62,1.08,9.56Z"/>
      <path d="M119.48,155.67c1.13,7.28,.13,14.87-3.96,21.91-6.26,10.79-17.47,15.31-29.83,12.32-9.46-2.29-15.96-8.08-20.52-16.3-2.82-5.08-4.73-10.5-6.32-16.06-1.65-5.81-2.37-11.7-1.85-17.73,.42-4.9,1.64-9.58,4.36-13.78,5.01-7.75,14.02-11.11,23.54-8.75,5.76,1.42,10.73,4.34,15.23,8.05,6.88,5.67,12.48,12.36,16.37,20.38,1.43,2.95,2.31,6.09,2.99,9.96Z"/>
    </g>
  </g>
</svg>